<svg width="14" height="14" viewBox="0 0 14 14" fill="none" xmlns="http://www.w3.org/2000/svg">
<g clip-path="url(#clip0_3_3123)">
<path d="M5.25 8.75L8.75 5.25" stroke="#667085" style="stroke:#667085;stroke:color(display-p3 0.4000 0.4392 0.5216);stroke-opacity:1;" stroke-width="1.2" stroke-linecap="round" stroke-linejoin="round"/>
<path d="M6.125 4.16199L7.76891 2.52137C8.26254 2.03571 8.92809 1.76478 9.62057 1.7676C10.3131 1.77042 10.9764 2.04676 11.466 2.53642C11.9557 3.02609 12.232 3.68941 12.2349 4.38189C12.2377 5.07437 11.9668 5.73992 11.4811 6.23356L9.83719 7.87473" stroke="#667085" style="stroke:#667085;stroke:color(display-p3 0.4000 0.4392 0.5216);stroke-opacity:1;" stroke-width="1.2" stroke-linecap="round" stroke-linejoin="round"/>
<path d="M4.16224 6.125L2.52161 7.76891C2.03595 8.26254 1.76502 8.92809 1.76784 9.62057C1.77066 10.3131 2.047 10.9764 2.53667 11.466C3.02633 11.9557 3.68965 12.232 4.38213 12.2349C5.07462 12.2377 5.74016 11.9668 6.2338 11.4811L7.87497 9.83719" stroke="#667085" style="stroke:#667085;stroke:color(display-p3 0.4000 0.4392 0.5216);stroke-opacity:1;" stroke-width="1.2" stroke-linecap="round" stroke-linejoin="round"/>
</g>
<defs>
<clipPath id="clip0_3_3123">
<rect width="14" height="14" fill="white" style="fill:white;fill-opacity:1;"/>
</clipPath>
</defs>
</svg>
