<svg width="54" height="54" viewBox="0 0 54 54" fill="none" xmlns="http://www.w3.org/2000/svg">
<g filter="url(#filter0_d_91_3788)">
<rect x="15.25" y="11" width="24" height="24" rx="12" fill="white" style="fill:white;fill-opacity:1;"/>
<path d="M30.2138 17.705C30.3669 17.5519 30.5486 17.4305 30.7486 17.3476C30.9486 17.2648 31.1629 17.2222 31.3794 17.2222C31.5958 17.2222 31.8102 17.2648 32.0102 17.3476C32.2102 17.4305 32.3919 17.5519 32.5449 17.705C32.698 17.858 32.8194 18.0397 32.9023 18.2397C32.9851 18.4397 33.0277 18.654 33.0277 18.8705C33.0277 19.087 32.9851 19.3013 32.9023 19.5013C32.8194 19.7013 32.698 19.883 32.5449 20.0361L24.6774 27.9036L21.4722 28.7777L22.3463 25.5724L30.2138 17.705Z" stroke="#687382" style="stroke:#687382;stroke:color(display-p3 0.4078 0.4510 0.5098);stroke-opacity:1;" stroke-width="1.5" stroke-linecap="round" stroke-linejoin="round"/>
</g>
<defs>
<filter id="filter0_d_91_3788" x="0.95" y="0.7" width="52.6" height="52.6" filterUnits="userSpaceOnUse" color-interpolation-filters="sRGB">
<feFlood flood-opacity="0" result="BackgroundImageFix"/>
<feColorMatrix in="SourceAlpha" type="matrix" values="0 0 0 0 0 0 0 0 0 0 0 0 0 0 0 0 0 0 127 0" result="hardAlpha"/>
<feOffset dy="4"/>
<feGaussianBlur stdDeviation="7.15"/>
<feComposite in2="hardAlpha" operator="out"/>
<feColorMatrix type="matrix" values="0 0 0 0 0 0 0 0 0 0 0 0 0 0 0 0 0 0 0.25 0"/>
<feBlend mode="normal" in2="BackgroundImageFix" result="effect1_dropShadow_91_3788"/>
<feBlend mode="normal" in="SourceGraphic" in2="effect1_dropShadow_91_3788" result="shape"/>
</filter>
</defs>
</svg>
