<svg width="14" height="14" viewBox="0 0 14 14" fill="none" xmlns="http://www.w3.org/2000/svg">
<g clip-path="url(#clip0_3_3657)">
<path d="M1.75 11.375H4.8125L10.0625 5.6875H12.25C12.366 5.6875 12.4773 5.64141 12.5594 5.55936C12.6414 5.47731 12.6875 5.36603 12.6875 5.25V3.0625C12.6875 2.94647 12.6414 2.83519 12.5594 2.75314C12.4773 2.67109 12.366 2.625 12.25 2.625H9.1875L3.9375 8.3125H1.75C1.63397 8.3125 1.52269 8.35859 1.44064 8.44064C1.35859 8.52269 1.3125 8.63397 1.3125 8.75V10.9375C1.3125 11.0535 1.35859 11.1648 1.44064 11.2469C1.52269 11.3289 1.63397 11.375 1.75 11.375Z" stroke="#667085" style="stroke:#667085;stroke:color(display-p3 0.4000 0.4392 0.5216);stroke-opacity:1;" stroke-width="1.2" stroke-linecap="round" stroke-linejoin="round"/>
<path d="M9.625 9.625L10.9375 8.3125L12.25 9.625" stroke="#667085" style="stroke:#667085;stroke:color(display-p3 0.4000 0.4392 0.5216);stroke-opacity:1;" stroke-width="1.2" stroke-linecap="round" stroke-linejoin="round"/>
<path d="M10.9375 8.3125V11.375" stroke="#667085" style="stroke:#667085;stroke:color(display-p3 0.4000 0.4392 0.5216);stroke-opacity:1;" stroke-width="1.2" stroke-linecap="round" stroke-linejoin="round"/>
</g>
<defs>
<clipPath id="clip0_3_3657">
<rect width="14" height="14" fill="white" style="fill:white;fill-opacity:1;"/>
</clipPath>
</defs>
</svg>
