<svg width="606" height="158" viewBox="0 0 606 158" fill="none" xmlns="http://www.w3.org/2000/svg">
<path d="M38.3569 1H0.550781V27M38.3569 1V27M38.3569 1H76.163M38.3569 27H0.550781M38.3569 27V53M38.3569 27H76.163M0.550781 27V53M38.3569 53H0.550781M38.3569 53V79M38.3569 53H76.163M0.550781 53V79M38.3569 79H0.550781M38.3569 79V105M38.3569 79H76.163M0.550781 79V105M38.3569 105H0.550781M38.3569 105V131M38.3569 105H76.163M0.550781 105V131M38.3569 131H0.550781M38.3569 131V157M38.3569 131H76.163M0.550781 131V157H38.3569M38.3569 157H76.163M76.163 1V27M76.163 1H113.969M76.163 27V53M76.163 27H113.969M76.163 53V79M76.163 53H113.969M76.163 79V105M76.163 79H113.969M76.163 105V131M76.163 105H113.969M76.163 131V157M76.163 131H113.969M76.163 157H113.969M113.969 1V27M113.969 1H151.775M113.969 27V53M113.969 27H151.775M113.969 53V79M113.969 53H151.775M113.969 79V105M113.969 79H151.775M113.969 105V131M113.969 105H151.775M113.969 131V157M113.969 131H151.775M113.969 157H151.775M151.775 1V27M151.775 1H189.581M151.775 27V53M151.775 27H189.581M151.775 53V79M151.775 53H189.581M151.775 79V105M151.775 79H189.581M151.775 105V131M151.775 105H189.581M151.775 131V157M151.775 131H189.581M151.775 157H189.581M189.581 1V27M189.581 1H227.388M189.581 27V53M189.581 27H227.388M189.581 53V79M189.581 53H227.388M189.581 79V105M189.581 79H227.388M189.581 105V131M189.581 105H227.388M189.581 131V157M189.581 131H227.388M189.581 157H227.388M227.388 1V27M227.388 1H265.194M227.388 27V53M227.388 27H265.194M227.388 53V79M227.388 53H265.194M227.388 79V105M227.388 79H265.194M227.388 105V131M227.388 105H265.194M227.388 131V157M227.388 131H265.194M227.388 157H265.194M265.194 1V27M265.194 1H303M265.194 27V53M265.194 27H303M265.194 53V79M265.194 53H303M265.194 79V105M265.194 79H303M265.194 105V131M265.194 105H303M265.194 131V157M265.194 131H303M265.194 157H303M303 1V27M303 1H340.806M303 27V53M303 27H340.806M303 53V79M303 53H340.806M303 79V105M303 79H340.806M303 105V131M303 105H340.806M303 131V157M303 131H340.806M303 157H340.806M340.806 1V27M340.806 1H378.612M340.806 27V53M340.806 27H378.612M340.806 53V79M340.806 53H378.612M340.806 79V105M340.806 79H378.612M340.806 105V131M340.806 105H378.612M340.806 131V157M340.806 131H378.612M340.806 157H378.612M378.612 1V27M378.612 1H416.418M378.612 27V53M378.612 27H416.418M378.612 53V79M378.612 53H416.418M378.612 79V105M378.612 79H416.418M378.612 105V131M378.612 105H416.418M378.612 131V157M378.612 131H416.418M378.612 157H416.418M416.418 1V27M416.418 1H454.224M416.418 27V53M416.418 27H454.224M416.418 53V79M416.418 53H454.224M416.418 79V105M416.418 79H454.224M416.418 105V131M416.418 105H454.224M416.418 131V157M416.418 131H454.224M416.418 157H454.224M454.224 1V27M454.224 1H492.03M454.224 27V53M454.224 27H492.03M454.224 53V79M454.224 53H492.03M454.224 79V105M454.224 79H492.03M454.224 105V131M454.224 105H492.03M454.224 131V157M454.224 131H492.03M454.224 157H492.03M492.03 1V27M492.03 1H529.836M492.03 27V53M492.03 27H529.836M492.03 53V79M492.03 53H529.836M492.03 79V105M492.03 79H529.836M492.03 105V131M492.03 105H529.836M492.03 131V157M492.03 131H529.836M492.03 157H529.836M529.836 1V27M529.836 1H567.643M529.836 27V53M529.836 27H567.643M529.836 53V79M529.836 53H567.643M529.836 79V105M529.836 79H567.643M529.836 105V131M529.836 105H567.643M529.836 131V157M529.836 131H567.643M529.836 157H567.643M567.643 1V27M567.643 1H605.449V27M567.643 27V53M567.643 27H605.449M567.643 53V79M567.643 53H605.449M567.643 79V105M567.643 79H605.449M567.643 105V131M567.643 105H605.449M567.643 131V157M567.643 131H605.449M567.643 157H605.449V131M605.449 27V53M605.449 53V79M605.449 79V105M605.449 105V131" stroke="url(#paint0_radial_138_9760)" stroke-opacity="0.3" style="" stroke-width="0.530612"/>
<defs>
<radialGradient id="paint0_radial_138_9760" cx="0" cy="0" r="1" gradientUnits="userSpaceOnUse" gradientTransform="translate(303 79) rotate(90) scale(78 302.449)">
<stop stop-color="#FF003D" style="stop-color:#FF003D;stop-color:color(display-p3 1.0000 0.0000 0.2400);stop-opacity:1;"/>
<stop offset="1" stop-color="#FF003D" stop-opacity="0" style="stop-color:none;stop-opacity:0;"/>
</radialGradient>
</defs>
</svg>
