<svg width="20" height="20" viewBox="0 0 20 20" fill="none" xmlns="http://www.w3.org/2000/svg">
<g clip-path="url(#clip0_3_2014)">
<path d="M7.5 12.5L12.5 7.5" stroke="white" style="stroke:white;stroke-opacity:1;" stroke-width="1.5" stroke-linecap="round" stroke-linejoin="round"/>
<path d="M8.75 5.94611L11.0984 3.60236C11.8036 2.90856 12.7544 2.52152 13.7437 2.52554C14.7329 2.52957 15.6805 2.92434 16.3801 3.62386C17.0796 4.32338 17.4743 5.27098 17.4784 6.26024C17.4824 7.24951 17.0954 8.20029 16.4016 8.90548L14.0531 11.25" stroke="white" style="stroke:white;stroke-opacity:1;" stroke-width="1.5" stroke-linecap="round" stroke-linejoin="round"/>
<path d="M5.94611 8.75L3.60236 11.0984C2.90856 11.8036 2.52152 12.7544 2.52554 13.7437C2.52957 14.7329 2.92434 15.6805 3.62386 16.3801C4.32338 17.0796 5.27098 17.4743 6.26024 17.4784C7.24951 17.4824 8.20029 17.0954 8.90548 16.4016L11.25 14.0531" stroke="white" style="stroke:white;stroke-opacity:1;" stroke-width="1.5" stroke-linecap="round" stroke-linejoin="round"/>
</g>
<defs>
<clipPath id="clip0_3_2014">
<rect width="20" height="20" fill="white" style="fill:white;fill-opacity:1;"/>
</clipPath>
</defs>
</svg>
