<svg width="194" height="42" viewBox="0 0 194 42" fill="none" xmlns="http://www.w3.org/2000/svg">
<path d="M84.9741 0.839844H88.443L89.9741 13.0647H90.2373L91.9119 0.839844H95.1655L96.8402 13.0647H97.1272L98.6344 0.839844H102.103V1.39008L99.4957 17.5863H94.9741L93.6823 6.98817H93.4191L92.1033 17.5863H87.5818L84.9741 1.39008V0.839844Z" fill="#313131" style="fill:#313131;fill:color(display-p3 0.1939 0.1939 0.1939);fill-opacity:1;"/>
<path d="M116.919 0.839844V3.90205H111.679V7.99296C112.174 7.80157 112.692 7.65005 113.234 7.53841C113.793 7.42677 114.343 7.355 114.885 7.3231C115.427 7.2912 115.93 7.30715 116.392 7.37095V10.3135L116.177 10.4571C115.81 10.3454 115.38 10.2816 114.885 10.2657C114.407 10.2497 113.888 10.2816 113.33 10.3614C112.772 10.4411 112.222 10.5767 111.679 10.7681V14.5241H116.919V17.5863H108.33V0.839844H116.919Z" fill="#313131" style="fill:#313131;fill:color(display-p3 0.1939 0.1939 0.1939);fill-opacity:1;"/>
<path d="M123.511 17.5863V0.839844H130.282C131.494 0.839844 132.467 1.1987 133.2 1.9164C133.95 2.61815 134.325 3.57509 134.325 4.78721C134.325 5.52087 134.197 6.14288 133.942 6.65324C133.703 7.14766 133.4 7.53841 133.033 7.82549C132.666 8.09662 132.315 8.28801 131.98 8.39966V8.56712C132.411 8.67876 132.849 8.91002 133.296 9.2609C133.743 9.61178 134.117 10.0823 134.42 10.6724C134.739 11.2625 134.899 11.9961 134.899 12.8733C134.899 13.91 134.691 14.7792 134.277 15.481C133.878 16.1828 133.32 16.7091 132.602 17.0599C131.884 17.4108 131.047 17.5863 130.09 17.5863H123.511ZM126.861 14.548H129.372C129.979 14.548 130.465 14.3725 130.832 14.0217C131.199 13.6548 131.382 13.1285 131.382 12.4427C131.382 11.7888 131.191 11.2864 130.808 10.9355C130.425 10.5687 129.947 10.3853 129.372 10.3853H126.861V14.548ZM126.861 7.75372H129.325C129.835 7.75372 130.25 7.57828 130.569 7.22741C130.888 6.86058 131.047 6.36616 131.047 5.74415C131.047 5.10619 130.888 4.61178 130.569 4.2609C130.25 3.91002 129.835 3.73458 129.325 3.73458H126.861V7.75372Z" fill="#313131" style="fill:#313131;fill:color(display-p3 0.1939 0.1939 0.1939);fill-opacity:1;"/>
<path d="M94.4717 22.3891V25.4513H89.2325V29.5422C89.7269 29.3508 90.2453 29.1993 90.7875 29.0876C91.3457 28.976 91.896 28.9042 92.4382 28.8723C92.9805 28.8404 93.4829 28.8564 93.9454 28.9202V31.8628L93.7301 32.0063C93.3633 31.8947 92.9327 31.8309 92.4382 31.8149C91.9598 31.799 91.4414 31.8309 90.8832 31.9106C90.325 31.9904 89.7748 32.1259 89.2325 32.3173V36.0733H94.4717V39.1355H85.8832V22.3891H94.4717Z" fill="#313131" style="fill:#313131;fill:color(display-p3 0.1939 0.1939 0.1939);fill-opacity:1;"/>
<path d="M100.107 39.1355V38.5853L103.504 30.523L100.346 22.9393V22.3891H103.791L106.255 28.8245H106.614L109.03 22.3891H112.475V22.9393L109.461 30.523L112.714 38.5853V39.1355H109.27L106.614 32.6522H106.255L103.552 39.1355H100.107Z" fill="#313131" style="fill:#313131;fill:color(display-p3 0.1939 0.1939 0.1939);fill-opacity:1;"/>
<path d="M118.652 39.1355V22.3891H124.465C125.486 22.3891 126.379 22.5805 127.145 22.9632C127.91 23.346 128.508 23.9441 128.939 24.7575C129.385 25.5549 129.609 26.5996 129.609 27.8915C129.609 29.1674 129.37 30.236 128.891 31.0972C128.429 31.9425 127.807 32.5805 127.025 33.0111C126.259 33.4258 125.406 33.6331 124.465 33.6331H122.001V39.1355H118.652ZM122.001 30.7384H124.011C124.441 30.7384 124.824 30.6267 125.159 30.4034C125.494 30.1801 125.749 29.8691 125.925 29.4704C126.1 29.0717 126.188 28.6012 126.188 28.0589C126.188 27.5167 126.1 27.0541 125.925 26.6714C125.749 26.2726 125.494 25.9696 125.159 25.7623C124.824 25.5549 124.441 25.4513 124.011 25.4513H122.001V30.7384Z" fill="#313131" style="fill:#313131;fill:color(display-p3 0.1939 0.1939 0.1939);fill-opacity:1;"/>
<path d="M135.797 22.3891H139.146V39.1355H135.749L135.797 22.3891ZM141.873 22.3891C142.83 22.3891 143.675 22.5805 144.409 22.9632C145.159 23.3301 145.749 23.8963 146.179 24.6618C146.61 25.4114 146.825 26.3524 146.825 27.4848C146.825 28.649 146.586 29.6219 146.108 30.4034C145.645 31.169 145.039 31.7511 144.289 32.1498C143.556 32.5326 142.766 32.724 141.921 32.724H137.375V22.3891H141.873ZM139.098 29.8293H141.466C141.849 29.8293 142.184 29.7416 142.471 29.5661C142.758 29.3907 142.974 29.1355 143.117 28.8006C143.277 28.4497 143.356 28.0589 143.356 27.6283C143.356 27.1658 143.277 26.775 143.117 26.4561C142.974 26.1211 142.758 25.8739 142.471 25.7144C142.184 25.539 141.849 25.4513 141.466 25.4513H139.098V29.8293ZM140.438 30.9058L143.643 30.8341L146.825 38.5853V39.1355H143.332L140.438 30.9058Z" fill="#313131" style="fill:#313131;fill:color(display-p3 0.1939 0.1939 0.1939);fill-opacity:1;"/>
<path d="M161.948 22.3891V25.4513H156.709V29.5422C157.203 29.3508 157.722 29.1993 158.264 29.0876C158.822 28.976 159.372 28.9042 159.915 28.8723C160.457 28.8404 160.959 28.8564 161.422 28.9202V31.8628L161.206 32.0063C160.84 31.8947 160.409 31.8309 159.915 31.8149C159.436 31.799 158.918 31.8309 158.359 31.9106C157.801 31.9904 157.251 32.1259 156.709 32.3173V36.0733H161.948V39.1355H153.359V22.3891H161.948Z" fill="#313131" style="fill:#313131;fill:color(display-p3 0.1939 0.1939 0.1939);fill-opacity:1;"/>
<path d="M178.04 34.7097C178.04 35.6985 177.825 36.5438 177.394 37.2455C176.979 37.9473 176.397 38.4896 175.648 38.8723C174.898 39.2392 174.037 39.4226 173.064 39.4226C172.298 39.4226 171.589 39.3269 170.935 39.1355C170.281 38.9601 169.715 38.7447 169.236 38.4896C168.774 38.2344 168.431 38.0191 168.207 37.8436V34.5661H168.638C169.148 35.0286 169.77 35.4433 170.504 35.8101C171.254 36.161 171.971 36.3364 172.657 36.3364C173.024 36.3364 173.351 36.2806 173.638 36.169C173.941 36.0414 174.18 35.866 174.356 35.6427C174.531 35.4194 174.619 35.1483 174.619 34.8293C174.619 34.3508 174.475 33.968 174.188 33.6809C173.917 33.3779 173.494 33.0589 172.92 32.724L170.935 31.5518C170.44 31.2647 169.954 30.9297 169.475 30.547C169.013 30.1482 168.622 29.6538 168.303 29.0637C168 28.4577 167.849 27.724 167.849 26.8628C167.849 25.842 168.064 24.9808 168.494 24.279C168.941 23.5613 169.523 23.027 170.241 22.6762C170.975 22.3093 171.796 22.1259 172.705 22.1259C173.407 22.1259 174.045 22.1977 174.619 22.3412C175.209 22.4848 175.727 22.6762 176.174 22.9154C176.636 23.1387 177.019 23.4018 177.322 23.7049V26.9824H176.868C176.389 26.4561 175.799 26.0334 175.097 25.7144C174.412 25.3795 173.71 25.212 172.992 25.212C172.514 25.212 172.107 25.3317 171.772 25.5709C171.437 25.8101 171.27 26.161 171.27 26.6235C171.27 27.086 171.461 27.4848 171.844 27.8197C172.227 28.1546 172.729 28.5135 173.351 28.8963L175.337 30.1163C175.879 30.4513 176.349 30.8341 176.748 31.2647C177.147 31.6793 177.458 32.1658 177.681 32.724C177.92 33.2822 178.04 33.9441 178.04 34.7097Z" fill="#313131" style="fill:#313131;fill:color(display-p3 0.1939 0.1939 0.1939);fill-opacity:1;"/>
<path d="M193.828 34.7097C193.828 35.6985 193.613 36.5438 193.183 37.2455C192.768 37.9473 192.186 38.4896 191.436 38.8723C190.687 39.2392 189.825 39.4226 188.852 39.4226C188.087 39.4226 187.377 39.3269 186.723 39.1355C186.069 38.9601 185.503 38.7447 185.025 38.4896C184.562 38.2344 184.219 38.0191 183.996 37.8436V34.5661H184.427C184.937 35.0286 185.559 35.4433 186.293 35.8101C187.042 36.161 187.76 36.3364 188.446 36.3364C188.812 36.3364 189.139 36.2806 189.427 36.169C189.73 36.0414 189.969 35.866 190.144 35.6427C190.32 35.4194 190.407 35.1483 190.407 34.8293C190.407 34.3508 190.264 33.968 189.977 33.6809C189.706 33.3779 189.283 33.0589 188.709 32.724L186.723 31.5518C186.229 31.2647 185.742 30.9297 185.264 30.547C184.801 30.1482 184.411 29.6538 184.092 29.0637C183.789 28.4577 183.637 27.724 183.637 26.8628C183.637 25.842 183.852 24.9808 184.283 24.279C184.73 23.5613 185.312 23.027 186.029 22.6762C186.763 22.3093 187.584 22.1259 188.494 22.1259C189.195 22.1259 189.833 22.1977 190.407 22.3412C190.998 22.4848 191.516 22.6762 191.962 22.9154C192.425 23.1387 192.808 23.4018 193.111 23.7049V26.9824H192.656C192.178 26.4561 191.588 26.0334 190.886 25.7144C190.2 25.3795 189.498 25.212 188.781 25.212C188.302 25.212 187.895 25.3317 187.56 25.5709C187.226 25.8101 187.058 26.161 187.058 26.6235C187.058 27.086 187.249 27.4848 187.632 27.8197C188.015 28.1546 188.517 28.5135 189.139 28.8963L191.125 30.1163C191.667 30.4513 192.138 30.8341 192.537 31.2647C192.935 31.6793 193.246 32.1658 193.47 32.724C193.709 33.2822 193.828 33.9441 193.828 34.7097Z" fill="#313131" style="fill:#313131;fill:color(display-p3 0.1939 0.1939 0.1939);fill-opacity:1;"/>
<path d="M6.7301 1.23877H0L16.3154 41.3649L29.3677 9.75038L42.2161 41.3649L58.5314 1.23877H51.8013L42.2161 24.5444L32.8347 1.23877H26.1046L16.3154 24.5444L6.7301 1.23877Z" fill="#313131" style="fill:#313131;fill:color(display-p3 0.1939 0.1939 0.1939);fill-opacity:1;"/>
<path d="M75.0511 40.3517V34.272H48.7426L46.0913 40.3517H75.0511Z" fill="#FF0207" style="fill:#FF0207;fill:color(display-p3 1.0000 0.0095 0.0260);fill-opacity:1;"/>
<path d="M75.0506 23.9367V17.8569H55.2682L52.6169 23.9367H75.0506Z" fill="#FF0207" style="fill:#FF0207;fill:color(display-p3 1.0000 0.0095 0.0260);fill-opacity:1;"/>
<path d="M75.0508 1.23877H61.9985L59.1433 7.52115H75.0508V1.23877Z" fill="#FF0207" style="fill:#FF0207;fill:color(display-p3 1.0000 0.0095 0.0260);fill-opacity:1;"/>
</svg>
